<svg xmlns="http://www.w3.org/2000/svg" width="35" height="29"><path fill="#167bf7" fill-rule="evenodd" d="m17.5 0-1.028.65L2.657 9.41 0 11.094v6.627l1.954 1.234.703.45 13.815 8.76.05.028.977.622.978-.622.051-.028 13.815-8.76.703-.45L35 17.72v-6.627L32.343 9.41 18.528.65 17.499 0ZM8.905 14.407 7.07 13.242l-3.384-2.148L17.5 2.333l13.815 8.76-3.385 2.15-1.835 1.164-8.595 5.448-8.593-5.448Zm9.571 7.158.051-.027 9.4-5.964 1.85-1.167 2.565-1.629.703-.45v4.24l-1.732 1.153-12.837 8.138v-4.294ZM3.687 17.72l-1.733-1.139v-4.254l.703.45 2.564 1.63 1.849 1.166 9.402 5.964.05.027v4.294L3.687 17.721Z"/></svg>